<?xml version="1.0" encoding="iso-8859-1"?>
<!-- Uploaded to: SVG Repo, www.svgrepo.com, Generator: SVG Repo Mixer Tools -->
<svg fill="#000000" version="1.1" id="Layer_1" xmlns="http://www.w3.org/2000/svg" xmlns:xlink="http://www.w3.org/1999/xlink" 
	 viewBox="0 0 496 496" xml:space="preserve">
<g>
	<g>
		<g>
			<path d="M448,268.136V232h-32v-64C416,75.368,340.632,0,248,0S80,75.368,80,168v64H48v36.136C16.272,280.32,0,295.032,0,312
				c0,21.24,26.408,38.024,66.448,50.032L89.888,448H160v16h16v-16h144v16h16v-16h70.112l23.448-85.968
				C469.592,350.024,496,333.24,496,312C496,295.032,479.728,280.32,448,268.136z M64,248h16v48h16V168c0-83.816,68.184-152,152-152
				s152,68.184,152,152v128h16v-48h16v51.36c-8.36,4.32-32.56,14.792-80,21.808v-42.024c0-30.76-22.128-56.424-51.296-61.984
				c3.656-4.776,6.288-10.424,7.336-16.728l1.728-10.376c0.992-5.92,4.424-11.224,9.408-14.544
				C329.712,168.48,336,156.728,336,144.064v-28.56C336,78.28,305.72,48,268.504,48h-41C190.28,48,160,78.28,160,115.504v28.56
				c0,12.664,6.288,24.416,16.832,31.44c4.984,3.32,8.416,8.624,9.408,14.536l1.728,10.384c1.048,6.312,3.68,11.952,7.336,16.728
				C166.128,222.72,144,248.376,144,279.144v42.024c-47.48-7.024-71.68-17.512-80-21.808V248z M304,294.528
				c9.288-3.312,16-12.112,16-22.528c0-13.232-10.768-24-24-24s-24,10.768-24,24c0,10.416,6.712,19.216,16,22.528v32.576
				c-12.408,0.568-25.688,0.896-40,0.896s-27.584-0.328-40-0.896v-32.576c9.288-3.312,16-12.112,16-22.528c0-13.232-10.768-24-24-24
				s-24,10.768-24,24c0,10.416,6.712,19.216,16,22.528v31.656c-11.552-0.776-22.184-1.768-32-2.92v-44.128
				C160,253.152,181.152,232,207.144,232h18.096h45.528h18.096C314.848,232,336,253.152,336,279.144v44.128
				c-9.816,1.152-20.448,2.144-32,2.92V294.528z M296,280c-4.416,0-8-3.584-8-8c0-4.416,3.584-8,8-8c4.416,0,8,3.584,8,8
				C304,276.416,300.416,280,296,280z M200,280c-4.416,0-8-3.584-8-8c0-4.416,3.584-8,8-8s8,3.584,8,8
				C208,276.416,204.416,280,200,280z M202.016,187.408c-1.72-10.264-7.664-19.464-16.312-25.216
				c-6.08-4.048-9.704-10.832-9.704-18.128v-28.56C176,87.104,199.104,64,227.504,64h41C296.896,64,320,87.104,320,115.504v28.56
				c0,7.296-3.624,14.08-9.704,18.128c-8.648,5.76-14.592,14.952-16.312,25.224l-1.728,10.384
				c-1.752,10.544-10.792,18.2-21.488,18.2H225.24c-10.696,0-19.736-7.656-21.496-18.2L202.016,187.408z M393.888,432H384v-16h-16
				v16h-16v-16h-16v16h-16v-16h-16v16h-16v-16h-16v16h-16v-16h-16v16h-16v-16h-16v16h-16v-16h-16v16h-16v-16h-16v16h-16v-16h-16v16
				h-9.888l-17.76-65.128C130.616,378.144,190.16,384,248,384c57.84,0,117.384-5.856,163.648-17.128L393.888,432z M248,368
				c-143.744,0-232-32.616-232-56c0-8.432,11.8-18.12,32-26.688v22.88l3.448,2.384C53.424,311.944,101.424,344,248,344
				s194.576-32.056,196.552-33.424l3.448-2.384v-22.88c20.2,8.568,32,18.248,32,26.688C480,335.384,391.744,368,248,368z"/>
			<path d="M240,120c0-13.232-10.768-24-24-24s-24,10.768-24,24s10.768,24,24,24S240,133.232,240,120z M208,120c0-4.416,3.584-8,8-8
				s8,3.584,8,8s-3.584,8-8,8S208,124.416,208,120z"/>
			<path d="M280,144c13.232,0,24-10.768,24-24s-10.768-24-24-24s-24,10.768-24,24S266.768,144,280,144z M280,112
				c4.416,0,8,3.584,8,8s-3.584,8-8,8c-4.416,0-8-3.584-8-8S275.584,112,280,112z"/>
			<rect x="224" y="176" width="48" height="16"/>
			<rect x="88" y="464" width="16" height="32"/>
			<rect x="392" y="464" width="16" height="32"/>
			<rect x="320" y="480" width="16" height="16"/>
			<rect x="160" y="480" width="16" height="16"/>
			<rect x="240" y="464" width="16" height="16"/>
		</g>
	</g>
</g>
</svg>